<svg xmlns="http://www.w3.org/2000/svg" viewBox="0 0 600 600">
  <rect width="600" height="600" rx="80" fill="#E6B85C"/>
  <ellipse cx="300" cy="340" rx="190" ry="90" fill="#F0CB80"/>
  <path d="M180 230c30-80 120-80 160-40 45 45 40 140 10 190-20 35-160 40-180-20-13-37 5-90 10-130z" fill="#C98A2B"/>
  <path d="M240 270c18-60 72-72 100-40 24 28 20 76 5 104-13 22-54 26-73 10-12-11-18-40-18-74z" fill="#7A3428"/>
  <path d="M325 350c28-18 52-55 38-88-16-36-45-34-68-24-22 10-34 44-28 68 8 34 35 70 58 84z" fill="#F3E7C9" opacity="0.75"/>
  <circle cx="280" cy="255" r="12" fill="#F3E7C9"/>
  <circle cx="340" cy="305" r="10" fill="#F3E7C9"/>
  <path d="M150 430h300a60 60 0 0 1-60 60H210a60 60 0 0 1-60-60z" fill="#7A3428" opacity="0.14"/>
</svg>
