<svg xmlns="http://www.w3.org/2000/svg" viewBox="0 0 600 600">
  <rect width="600" height="600" rx="80" fill="#1F3D2B"/>
  <ellipse cx="300" cy="340" rx="180" ry="80" fill="#2E4A34"/>
  <path d="M300 120c-80 0-140 70-140 80s60 10 140 10 140 10 140-10-60-80-140-80z" fill="#C98A2B"/>
  <g fill="#F3E7C9" opacity="0.9">
    <ellipse cx="270" cy="220" rx="18" ry="8" transform="rotate(-20 270 220)"/>
    <ellipse cx="310" cy="205" rx="18" ry="8" transform="rotate(10 310 205)"/>
    <ellipse cx="260" cy="245" rx="18" ry="8" transform="rotate(-5 260 245)"/>
    <ellipse cx="330" cy="235" rx="18" ry="8" transform="rotate(18 330 235)"/>
    <ellipse cx="220" cy="260" rx="16" ry="7" transform="rotate(-15 220 260)"/>
    <ellipse cx="350" cy="170" rx="16" ry="7" transform="rotate(25 350 170)"/>
  </g>
  <path d="M295 140c0 110 10 240 10 240" stroke="#7A3428" stroke-width="18" stroke-linecap="round"/>
  <path d="M285 150c0 95-26 184-26 184" stroke="#7A3428" stroke-width="14" stroke-linecap="round"/>
  <path d="M315 140c0 95 26 184 26 184" stroke="#7A3428" stroke-width="14" stroke-linecap="round"/>
</svg>
