<svg xmlns="http://www.w3.org/2000/svg" viewBox="0 0 600 600">
  <rect width="600" height="600" rx="80" fill="#7A3428"/>
  <path d="M190 220c0-58 46-105 102-105s102 47 102 105v216H190V220z" fill="#8F4433"/>
  <path d="M190 225c0-52 42-95 95-95s95 43 95 95v210H190V225z" fill="#D9CBA0"/>
  <path d="M210 280c0-40 36-70 70-70s70 30 70 70v170H210V280z" fill="#E6B85C"/>
  <ellipse cx="300" cy="470" rx="90" ry="35" fill="#3B241A" opacity="0.25"/>
  <path d="M240 325c18-30 40-30 60-20 12 6 22 18 26 32 9 32-12 64-45 74-36 11-71-7-80-35-6-19 5-34 13-51z" fill="#7A3428"/>
  <path d="M215 340c20-24 42-22 60-12" stroke="#7A3428" stroke-width="12" stroke-linecap="round"/>
  <path d="M301 280c24 22 35 40 30 58" stroke="#7A3428" stroke-width="10" stroke-linecap="round"/>
</svg>
