<svg xmlns="http://www.w3.org/2000/svg" viewBox="0 0 600 600">
  <rect width="600" height="600" rx="80" fill="#1F3D2B"/>
  <circle cx="300" cy="320" r="165" fill="#2A4A31"/>
  <path d="M220 220c40-80 140-80 190-30 55 55 50 160 15 210-25 35-120 35-160-10-25-30-40-85-45-140z" fill="#D9A441"/>
  <path d="M260 250c16-50 62-58 90-24 28 34 22 88-6 112-18 16-52 16-70-2-16-16-18-64-14-86z" fill="#F3E7C9"/>
  <path d="M320 300c24 18 30 44 20 62-12 22-38 26-58 14-16-10-18-36-12-52 8-24 28-28 50-24z" fill="#7A3428"/>
  <circle cx="290" cy="260" r="18" fill="#F3E7C9"/>
  <circle cx="340" cy="330" r="14" fill="#F3E7C9"/>
  <path d="M150 420h300a60 60 0 0 1-60 60H210a60 60 0 0 1-60-60z" fill="#7A3428" opacity="0.16"/>
</svg>
